HIERARCHY
ROOT Hips
{
	OFFSET 0.000000 0.000000 0.000000 
	CHANNELS 6 Xposition Yposition Zposition Zrotation Yrotation Xrotation
	JOINT LeftUpLeg
	{
		OFFSET 1.363060 -1.794630 0.839290 
		CHANNELS 3 Zrotation Yrotation Xrotation
		JOINT LeftLeg
		{
			OFFSET 2.448110 -6.726130 0.000000 
			CHANNELS 3 Zrotation Yrotation Xrotation
			JOINT LeftFoot
			{
				OFFSET 2.562200 -7.039590 0.000000 
				CHANNELS 3 Zrotation Yrotation Xrotation
				JOINT LeftToeBase
				{
					OFFSET 0.157640 -0.433110 2.322550 
					CHANNELS 3 Zrotation Yrotation Xrotation
					End Site
					{
						OFFSET 0.000000 0.000000 0.000000 
					}
				}
			}
		}
	}
	JOINT RightUpLeg
	{
		OFFSET -1.305520 -1.794630 0.839290 
		CHANNELS 3 Zrotation Yrotation Xrotation
		JOINT RightLeg
		{
			OFFSET -2.542530 -6.985550 0.000000 
			CHANNELS 3 Zrotation Yrotation Xrotation
			JOINT RightFoot
			{
				OFFSET -2.568260 -7.056230 0.000000 
				CHANNELS 3 Zrotation Yrotation Xrotation
				JOINT RightToeBase
				{
					OFFSET -0.164730 -0.452590 2.363150 
					CHANNELS 3 Zrotation Yrotation Xrotation
					End Site
					{
						OFFSET 0.000000 0.000000 0.000000 
					}
				}
			}
		}
	}
	JOINT Spine
	{
		OFFSET 0.028270 2.035590 -0.193380 
		CHANNELS 3 Zrotation Yrotation Xrotation
		JOINT Spine1
		{
			OFFSET 0.056720 2.048850 -0.042750 
			CHANNELS 3 Zrotation Yrotation Xrotation
			JOINT Neck1
			{
				OFFSET -0.054170 1.746240 0.172020 
				CHANNELS 3 Zrotation Yrotation Xrotation
				JOINT Head
				{
					OFFSET 0.104070 1.761360 -0.123970 
					CHANNELS 3 Zrotation Yrotation Xrotation
					End Site
					{
						OFFSET 0.000000 0.000000 0.000000 
					}
				}
			}
			JOINT LeftArm
			{
				OFFSET 3.362410 1.200890 -0.311210 
				CHANNELS 3 Zrotation Yrotation Xrotation
				JOINT LeftForeArm
				{
					OFFSET 4.983000 -0.000000 -0.000000 
					CHANNELS 3 Zrotation Yrotation Xrotation
					JOINT LeftHand
					{
						OFFSET 3.483560 -0.000000 -0.000000 
						CHANNELS 3 Zrotation Yrotation Xrotation
						JOINT LeftHandIndex1
						{
							OFFSET 0.715260 -0.000000 -0.000000 
							CHANNELS 3 Zrotation Yrotation Xrotation
							End Site
							{
								OFFSET 0.000000 0.000000 0.000000 
							}
						}
					}
				}
			}
			JOINT RightArm
			{
				OFFSET -3.136600 1.374050 -0.404650 
				CHANNELS 3 Zrotation Yrotation Xrotation
				JOINT RightForeArm
				{
					OFFSET -5.241900 -0.000000 -0.000000 
					CHANNELS 3 Zrotation Yrotation Xrotation
					JOINT RightHand
					{
						OFFSET -3.444170 -0.000000 -0.000000 
						CHANNELS 3 Zrotation Yrotation Xrotation
						JOINT RightHandIndex1
						{
							OFFSET -0.622530 -0.000000 -0.000000 
							CHANNELS 3 Zrotation Yrotation Xrotation
							End Site
							{
								OFFSET 0.000000 0.000000 0.000000 
							}
						}
					}
				}
			}
		}
	}
}
MOTION
Frames: 16
Frame Time: 0.041667
11.082413 17.700124 -4.481168 177.952555 -3.188754 -176.384845 -24.357486 3.946781 -15.981109 2.173675 10.401360 29.828721 -0.605976 10.183707 -17.523715 0.830300 -5.813400 -16.244000 28.856227 13.949106 -2.334230 -2.057235 -5.993540 16.898987 -1.621508 -6.375447 -29.221599 -1.242900 7.068900 -19.919600 1.084238 0.516354 -4.679401 3.417213 0.387601 3.921357 1.354572 -5.405610 26.132842 0.206600 -4.072400 12.530000 -70.678703 -1.131942 15.371999 20.416388 -23.788007 -4.938430 -0.782124 0.609234 -13.322497 -7.125000 0.000000 0.000000 70.563624 6.912782 9.312476 -20.227522 22.740739 -4.105147 -2.012803 -0.534483 10.027819 7.125000 0.000000 0.000000 
11.088491 17.717584 -4.543494 178.020938 -2.825763 -176.408359 -23.869756 3.340360 -16.668944 2.100216 10.308211 29.474904 -0.669553 10.374700 -17.197513 0.783800 -5.651900 -15.777600 29.131239 13.883834 -1.584623 -1.975918 -5.675710 16.025018 -1.490144 -6.773946 -28.600411 -1.164700 6.850900 -19.274400 1.065663 0.524924 -4.658711 3.472622 0.370611 4.008325 1.448361 -5.247918 26.060076 0.221400 -3.954900 12.587700 -67.912758 -0.567948 14.015097 20.371268 -23.594857 -4.910029 -0.803734 0.644594 -13.456863 -7.125000 0.000000 0.000000 68.474770 7.214129 8.593906 -20.078432 22.393491 -4.049922 -2.036544 -0.480164 10.317873 7.125000 0.000000 0.000000 
11.088381 17.743332 -4.598858 177.966771 -2.386580 -176.419776 -23.537128 2.863386 -17.317634 2.068936 10.269724 29.295871 -0.854666 10.847169 -15.893836 0.822700 -5.787100 -16.167900 29.173473 13.355749 -0.830921 -1.869854 -5.215845 14.754654 -1.263752 -7.209986 -27.290819 -1.114900 6.707800 -18.852500 1.010644 0.606140 -4.642660 3.448249 0.395913 4.042592 1.557776 -5.192086 25.915585 0.230200 -3.873700 12.538400 -64.907418 0.447683 12.651698 20.489984 -23.546172 -4.910896 -0.849634 0.699204 -13.666078 -7.125000 0.000000 0.000000 66.242824 7.033523 7.667685 -20.053838 22.144364 -4.016175 -2.048706 -0.469646 10.482031 7.125000 0.000000 0.000000 
11.085618 17.779689 -4.650907 177.975427 -1.830630 -176.360718 -23.125313 2.417305 -17.783831 2.050061 10.226085 29.108194 -1.087204 11.239515 -13.360166 0.816400 -5.765600 -16.105700 29.261005 12.983556 -0.093726 -1.760555 -4.722688 13.382751 -0.992820 -7.862374 -25.784291 -1.139200 6.778200 -19.060000 0.942260 0.773803 -4.617321 3.374927 0.463697 4.133222 1.670330 -5.209954 25.685520 0.242200 -3.818900 12.415800 -61.685494 1.824578 11.491989 20.848060 -23.760427 -4.991702 -0.885662 0.767335 -14.742614 -7.125000 0.000000 0.000000 63.764781 6.424534 6.571232 -19.994598 21.827766 -3.972758 -2.068085 -0.463290 10.496966 7.125000 0.000000 0.000000 
11.079319 17.818919 -4.701630 178.156897 -1.203964 -176.262663 -22.520331 1.996176 -18.111762 2.064864 10.212689 29.025700 -1.288437 11.412905 -9.489555 0.771600 -5.608800 -15.653400 29.549905 12.808500 0.671345 -1.650908 -4.209551 11.950949 -0.707972 -8.554173 -24.127016 -1.083400 6.615400 -18.580900 0.883831 0.978986 -4.581960 3.277142 0.548716 4.282968 1.745196 -5.244707 25.392452 0.243200 -3.773700 12.235200 -58.285717 3.514315 10.682471 21.382106 -24.153992 -5.121577 -0.919201 0.855291 -16.454879 -7.125000 0.000000 0.000000 60.968674 5.332355 5.654221 -19.997973 21.527294 -3.931219 -2.086028 -0.476657 9.963938 7.125000 0.000000 0.000000 
11.065174 17.860248 -4.752353 178.140504 -0.466965 -176.159020 -22.182224 1.677252 -18.349672 2.089111 10.204933 28.957881 -1.361186 11.346669 -4.802860 0.622300 -5.048400 -14.046600 29.557416 12.325397 1.328017 -1.554948 -3.677382 10.474002 -0.400788 -8.996353 -21.807373 -0.852600 5.889000 -16.462700 0.804098 1.210547 -4.530573 3.203959 0.643755 4.487577 1.789839 -5.238729 25.000161 0.239000 -3.709200 11.944000 -54.741585 5.570411 10.028382 21.866095 -24.463858 -5.220447 -0.961654 0.965245 -18.147402 -7.125000 0.000000 0.000000 58.067181 3.770928 4.555924 -20.129282 21.318289 -3.898546 -2.089460 -0.523943 9.614970 7.125000 0.000000 0.000000 
11.044178 17.904120 -4.798545 177.990665 0.446699 -175.980268 -22.111868 1.702084 -18.284655 2.096137 10.192171 28.909780 -1.374388 11.447834 -3.051096 0.933000 -6.153000 -17.229000 29.383125 11.747577 1.736814 -1.480921 -3.187301 9.102282 -0.106509 -9.259794 -19.021654 -0.522200 4.631300 -12.859900 0.697560 1.517658 -4.437011 3.110274 0.778224 4.880223 1.893247 -5.207927 24.540873 0.288100 -3.629000 11.611100 -51.134238 8.044608 9.524588 22.325335 -24.763500 -5.330634 -0.989245 1.092616 -19.806271 -7.125000 0.000000 0.000000 55.195803 1.869121 2.781922 -20.194945 21.046794 -3.866825 -2.113291 -0.526932 10.024167 7.125000 0.000000 0.000000 
11.017988 17.955284 -4.832249 177.747721 1.302887 -175.705576 -22.233910 1.809126 -18.407647 2.087365 10.164113 28.787845 -1.350155 11.454818 -1.162176 1.074300 -6.588700 -18.502500 29.090155 11.256727 1.823267 -1.434650 -2.811709 8.036444 0.138400 -9.643284 -16.465195 -0.282800 3.420200 -9.450900 0.581527 1.781114 -4.308269 3.003257 0.868871 5.393635 2.091520 -5.134132 23.969729 0.408900 -3.520600 11.192400 -47.646171 10.812726 8.855692 22.715241 -25.019507 -5.415113 -0.992374 1.255874 -21.188331 -7.125000 0.000000 0.000000 52.408794 -0.406538 0.596094 -20.310457 20.831524 -3.850228 -2.145222 -0.505407 10.586659 7.125000 0.000000 0.000000 
10.992571 18.010980 -4.847941 177.538503 1.899992 -175.381512 -22.311103 1.781031 -18.610182 2.069070 10.135386 28.653039 -1.255299 11.079966 0.480811 1.194200 -6.934100 -19.520300 28.831322 10.645655 1.589361 -1.405220 -2.551104 7.279473 0.333520 -10.163537 -14.337451 -0.132600 2.347200 -6.466200 0.480695 1.941470 -4.160124 2.907583 0.915054 5.866897 2.391435 -5.014286 23.197345 0.597700 -3.378900 10.598400 -44.383540 14.005695 8.059792 23.061333 -25.265607 -5.474972 -0.980984 1.448162 -22.233102 -7.125000 0.000000 0.000000 49.795059 -3.268533 -1.459365 -20.592392 20.774067 -3.863573 -2.166290 -0.545200 10.392024 7.125000 0.000000 0.000000 
10.968923 18.065128 -4.840979 177.451753 2.335032 -175.037618 -22.210775 1.547651 -18.879538 2.045151 10.109001 28.503055 -1.151519 10.757173 2.200862 1.343000 -7.337100 -20.717900 28.696805 9.993794 1.089219 -1.382487 -2.361811 6.706048 0.491235 -10.805778 -12.685161 -0.019300 0.897700 -2.467500 0.399071 2.085040 -3.980234 2.806530 0.962411 6.288765 2.628222 -4.910773 22.304588 0.736900 -3.233400 9.917300 -41.359977 17.507796 7.188444 23.257804 -25.412857 -5.497727 -0.979000 1.632357 -22.580634 -7.125000 0.000000 0.000000 47.468548 -6.816244 -3.448955 -20.943566 20.792812 -3.928283 -2.199916 -0.653137 9.398963 7.125000 0.000000 0.000000 
10.939307 18.125797 -4.807606 177.276877 2.753428 -174.519407 -22.236080 1.150418 -19.432625 2.027715 10.120781 28.437919 -1.023199 10.318301 3.721570 1.508300 -7.756600 -21.977100 28.379899 9.558888 0.061721 -1.382838 -2.299531 6.457707 0.621256 -11.521907 -11.297607 -0.002500 -0.324200 0.890700 0.314386 2.268665 -3.769013 2.723791 1.037680 6.707010 2.689552 -4.835150 21.369094 0.779600 -3.103600 9.237600 -38.716521 20.980623 6.353212 23.155571 -25.291616 -5.418110 -0.976531 1.808032 -23.198892 -7.125000 0.000000 0.000000 45.560248 -10.939555 -5.687828 -21.277147 20.828118 -4.039912 -2.249285 -0.804480 8.346067 7.125000 0.000000 0.000000 
10.904608 18.193095 -4.752021 177.276906 3.126568 -173.781975 -22.096682 0.742379 -20.331790 2.036311 10.205973 28.570541 -0.892681 9.781610 4.801526 1.549700 -7.857200 -22.281300 28.190840 9.471671 -1.748592 -1.419340 -2.533378 6.990405 0.703928 -12.045218 -9.891819 -0.018100 -0.868600 2.387400 0.261698 2.456400 -3.509978 2.683008 1.128392 7.215074 2.688537 -4.745366 20.289574 0.828000 -2.969000 8.529700 -36.661521 24.650048 5.198937 22.927011 -25.152066 -5.330761 -0.964100 1.949497 -23.905551 -7.125000 0.000000 0.000000 44.048929 -15.573970 -7.877832 -21.571898 20.860645 -4.150475 -2.291889 -0.967120 7.378399 7.125000 0.000000 0.000000 
10.871345 18.253211 -4.664831 177.404997 3.209312 -172.914347 -21.812937 0.347773 -21.712461 2.088233 10.398903 28.989302 -0.739434 9.123164 5.892860 1.528900 -7.806800 -22.128900 28.064199 9.529700 -4.466969 -1.507672 -3.151634 8.569488 0.703925 -12.101592 -8.595037 -0.038500 -1.267100 3.484100 0.267680 2.498900 -3.211188 2.810967 1.160376 7.671607 2.659630 -4.585531 19.017182 0.900900 -2.800900 7.770000 -35.372364 28.791478 3.742022 22.737878 -25.180482 -5.292536 -0.962568 2.022622 -25.100529 -7.125000 0.000000 0.000000 42.902411 -20.720859 -9.762475 -21.830185 20.880068 -4.263139 -2.328608 -1.144390 6.204294 7.125000 0.000000 0.000000 
10.838745 18.298408 -4.541616 177.468229 3.064030 -171.877824 -21.599992 -0.073006 -23.716464 2.194115 10.723076 29.766945 -0.539374 8.092249 6.915103 1.569200 -7.904400 -22.424200 27.705381 9.727737 -8.111045 -1.665337 -4.106085 11.086099 0.633102 -11.703853 -7.233412 -0.045500 -1.376800 3.786100 0.301391 2.456034 -2.904822 3.052213 1.177447 7.876299 2.578473 -4.439847 17.652268 0.955500 -2.643600 6.993100 -34.838429 33.099061 1.809587 22.526912 -25.257023 -5.279981 -0.984587 2.015291 -26.563305 -7.125000 0.000000 0.000000 42.415935 -26.515733 -11.341770 -22.082623 20.912644 -4.410652 -2.353727 -1.366530 4.446701 7.125000 0.000000 0.000000 
10.802278 18.323494 -4.398951 177.580853 3.021745 -170.713082 -21.299297 -0.511235 -26.182030 2.365109 11.184082 30.937880 -0.331914 6.737228 7.481846 1.714800 -8.244900 -23.460600 27.315117 9.369680 -12.762118 -1.915661 -5.340509 14.433518 0.448343 -10.160864 -4.990311 -0.029700 -1.112800 3.059300 0.344647 2.483347 -2.562755 3.276222 1.264364 8.032410 2.417431 -4.336194 16.283684 0.963800 -2.503800 6.325500 -35.083836 37.440633 -0.460655 22.217271 -25.223057 -5.250912 -1.019982 1.942682 -28.054470 -7.125000 0.000000 0.000000 42.761812 -32.692436 -12.751000 -22.293592 20.887929 -4.533470 -2.338753 -1.629416 2.277471 7.125000 0.000000 0.000000 
10.761170 18.325925 -4.239821 177.626515 3.010408 -169.450038 -20.952918 -1.177043 -28.958229 2.611079 11.773196 32.490300 -0.165754 5.385653 7.506028 1.878500 -8.608300 -24.577600 26.710543 9.050713 -18.041536 -2.262789 -6.745050 18.343663 0.243206 -8.272929 -2.547701 -0.006900 -0.537800 1.477900 0.396979 2.492244 -2.201122 3.529297 1.361586 8.128860 2.126360 -4.070711 14.977945 0.950200 -1.894000 5.823800 -35.938194 42.112496 -1.974543 21.834794 -25.025292 -5.197008 -1.070405 1.821696 -30.032698 -7.125000 0.000000 0.000000 43.949920 -38.880948 -14.249234 -22.412309 20.697382 -4.622570 -2.316639 -1.881287 0.285120 7.125000 0.000000 0.000000 
